<svg width="395" height="300" viewBox="0 0 395 300" fill="none" xmlns="http://www.w3.org/2000/svg">
  <path d="M194.788 102.88L165.115 0.00898204H82.7501V16.5269H90.5692C100.314 16.5269 108.393 22.2216 111.358 32.7485L156.723 189.521H198.049L218.299 119.928L218.013 119.677C204.793 119.677 198.29 114.799 194.788 102.88Z" fill="#FFFEF2"/>
  <path d="M361.354 172.994C351.636 172.994 343.817 166.509 340.853 156.485L295.496 0H232.317L287.104 189.512H369.174V172.994H361.354Z" fill="#FFFEF2"/>
  <path d="M24.8994 172.958V189.53H97.8868V172.958H24.8994Z" fill="#FFFEF2"/>
  <path d="M46.7445 259.446L32.6737 299.237H28.8851L13.9365 259.446L10.2464 290.129C10.1478 290.695 10.0851 291.521 10.0851 291.898C10.0851 295.599 11.6973 296.362 17.1161 296.641V299.237H0V296.641C4.22752 296.416 5.64266 295.599 6.09049 292.275L10.7569 255.269C11.2585 251.255 9.34174 250.078 4.45143 249.763V247.266H21.2003C21.3615 248.883 21.7019 250.15 22.302 251.793L34.3844 284.093L45.5802 251.704C46.1803 250.087 46.6192 248.892 46.7445 247.275H63.2068V249.772C58.4419 250.087 56.5252 251.254 57.0536 255.278L61.5588 292.284C61.9977 295.769 63.5471 296.425 67.6493 296.65V299.246H43.7172V296.65C48.8225 296.362 50.5959 295.608 50.5959 291.907C50.5959 291.467 50.5332 290.704 50.4705 290.138L46.7445 259.446ZM100.144 291.018C100.144 293.551 100.744 295.159 102.607 295.159C103.709 295.159 104.748 294.808 105.572 294.431L106.01 296.048C103.87 298.581 101.057 300 97.6539 300C93.5518 300 90.9723 297.53 90.2468 293.452C87.8822 296.587 84.0309 299.838 78.6122 299.838C72.6829 299.838 68.7688 296.201 68.7688 290.254C68.7688 283.958 73.274 281.272 78.8271 279.278L90.0229 275.201V268.94C90.0229 264.638 88.5988 261.602 84.8191 261.602C81.3529 261.602 79.266 262.491 78.1643 264.036C80.4662 264.575 81.7918 266.407 81.7918 268.716C81.7918 271.913 79.5884 273.997 76.176 273.997C72.9874 273.997 70.9722 271.913 70.9722 268.653C70.9722 262.419 77.3403 259.293 85.6431 259.293C95.0475 259.293 100.153 262.716 100.153 271.473V291.018H100.144ZM90.0229 291.683V277.922L83.6547 280.455C80.5289 281.722 78.5495 283.365 78.5495 287.506C78.5495 291.395 80.3139 294.054 84.3175 294.054C86.4582 294.054 87.936 293.228 90.0229 291.683ZM107.211 296.362L106.736 286.114H109.477C111.116 292.563 114.806 297.404 120.52 297.404C124.524 297.404 127.488 295.536 127.488 291.458C127.488 287.443 124.81 285.889 118.971 283.805C111.116 281.048 107.049 277.922 107.049 271.087C107.049 263.596 112.665 259.284 120.735 259.284C125.563 259.284 129.629 260.488 132.818 262.482V271.464H130.292C129.029 266.183 126.002 261.817 120.735 261.817C116.982 261.817 114.743 264.027 114.743 267.323C114.743 270.647 117.045 272.29 122.75 274.437C130.731 277.186 135.397 280.222 135.397 287.497C135.397 295.374 129.566 299.991 120.448 299.991C114.815 300 110.238 298.518 107.211 296.362ZM160.995 259.958V263.308H151.34V287.946C151.34 292.401 153.042 294.332 156.544 294.332C158.532 294.332 160.171 293.668 161.998 292.338L162.974 293.605C160.61 297.305 156.884 299.991 151.492 299.991C145.5 299.991 141.049 296.793 141.049 288.476V263.299H136.445V261.719C141.55 259.347 145.84 255.26 149.029 250.365H151.331V259.958H160.995ZM196.096 274.725V276.431H171.994C171.707 286.778 176.974 293.003 184.229 293.003C189.271 293.003 192.585 290.793 195.272 286.931L196.374 287.596C194.511 294.934 189.119 299.991 180.664 299.991C169.943 299.991 162.751 292.051 162.751 280.662C162.751 268.042 170.892 259.275 180.977 259.275C190.892 259.284 196.096 265.841 196.096 274.725ZM172.218 273.781H186.889C186.889 266.731 185.061 261.979 180.234 261.979C175.344 261.979 172.755 266.946 172.218 273.781ZM270.669 250.904L270.83 262.769H267.928C266.226 254.228 261.873 249.647 254.681 249.647C244.524 249.647 239.858 259.796 239.858 272.452C239.858 286.24 245.286 296.811 255.344 296.811C262.312 296.811 267.05 292.41 269.567 281.659H272.594L271.43 295.608C267.14 298.356 261.336 300 254.395 300C238.309 300 228.376 289.913 228.376 274.599C228.376 257.29 239.858 246.44 254.395 246.44C260.978 246.449 266.441 248.057 270.669 250.904ZM289.334 293.542C289.334 296.138 290.436 296.578 293.938 296.802V299.237H274.448V296.802C277.852 296.578 279.052 296.138 279.052 293.542V254.003L274.61 251.695V250.141L287.695 246.566H289.334V293.542ZM316.5 291.647V277.922L310.132 280.455C307.104 281.623 305.08 283.338 305.08 287.506C305.08 291.368 306.88 294.054 310.794 294.054C312.935 294.054 314.413 293.228 316.5 291.647ZM333.723 296.362L333.284 286.114H336.025C337.637 292.563 341.354 297.404 347.033 297.404C351.036 297.404 354.1 295.536 354.1 291.458C354.1 287.443 351.35 285.889 345.492 283.805C337.637 281.048 333.571 277.922 333.571 271.087C333.571 263.596 339.187 259.284 347.355 259.284C352.084 259.284 356.16 260.488 359.339 262.482V271.464H356.813C355.586 266.183 352.523 261.817 347.346 261.817C343.495 261.817 341.256 264.027 341.256 267.323C341.256 270.647 343.558 272.29 349.272 274.437C357.288 277.186 362.017 280.222 362.017 287.497C362.017 295.374 356.088 299.991 346.97 299.991C341.354 300 336.751 298.518 333.723 296.362ZM365.797 296.362L365.421 286.114H368.161C369.774 292.563 373.553 297.404 379.205 297.404C383.182 297.404 386.236 295.536 386.236 291.458C386.236 287.443 383.432 285.889 377.718 283.805C369.765 281.048 365.698 277.922 365.698 271.087C365.698 263.596 371.341 259.284 379.483 259.284C384.212 259.284 388.287 260.488 391.502 262.482V271.464H388.977C387.776 266.183 384.651 261.817 379.483 261.817C375.631 261.817 373.491 264.027 373.491 267.323C373.491 270.647 375.694 272.29 381.408 274.437C389.487 277.186 394.091 280.222 394.091 287.497C394.091 295.374 388.224 299.991 379.106 299.991C373.553 300 368.887 298.518 365.797 296.362ZM326.683 291.018C326.683 293.551 327.248 295.159 329.111 295.159C330.212 295.159 331.26 294.808 332.075 294.431L332.514 296.048C330.365 298.581 327.561 300 324.158 300C320.091 300 317.467 297.53 316.742 293.452C314.377 296.587 310.526 299.838 305.107 299.838C299.178 299.838 295.264 296.201 295.264 290.254C295.264 283.958 299.778 281.272 305.322 279.278L316.518 275.201V268.94C316.518 264.638 315.102 261.602 311.35 261.602C307.848 261.602 305.761 262.491 304.659 264.036C306.961 264.575 308.286 266.407 308.286 268.716C308.286 271.913 306.074 273.997 302.671 273.997C299.482 273.997 297.467 271.913 297.467 268.653C297.467 262.419 303.835 259.293 312.138 259.293C321.569 259.293 326.674 262.716 326.674 271.473V291.018H326.683ZM215.72 264.189C215.72 267.826 217.87 270.135 221.112 270.135C224.677 270.135 226.916 267.826 226.916 264.566C226.916 261.216 224.9 259.284 222.025 259.284C218.022 259.284 215.433 262.105 212.531 270.296L212.818 259.284H211.116L197.869 263.299V264.692L202.312 267.377V293.533C202.312 296.129 201.112 296.569 197.708 296.793V299.228H218.747V296.793C214.233 296.416 212.531 295.976 212.531 292.994V273.925C214.17 269.308 216.759 266.111 221.049 263.578L215.72 264.189Z" fill="#FFFEF2"/>
</svg>
